<?xml version="1.0" standalone="no"?>
<!DOCTYPE svg PUBLIC "-//W3C//DTD SVG 1.1//EN" "http://www.w3.org/Graphics/SVG/1.1/DTD/svg11.dtd" >
<!--
2013-9-30: Created.
-->
<svg>
<metadata>
Created by iconfont
</metadata>
<defs>

<font id="iconfont" horiz-adv-x="1024" >
  <font-face
    font-family="iconfont"
    font-weight="500"
    font-stretch="normal"
    units-per-em="1024"
    ascent="896"
    descent="-128"
  />
    <missing-glyph />
    
    <glyph glyph-name="shangyiye-copy" unicode="&#59106;" d="M832 524.8c0-6.4 0-19.2-6.4-25.6L512 198.39999999999998l-307.2 307.2c-12.8 12.8-12.8 32 0 44.8s32 12.8 44.8 0L512 288.00000001l262.4 262.39999999c12.8 12.8 32 12.8 44.8 0 6.4-6.4 12.8-12.8 12.8-25.6z"  horiz-adv-x="1024" />

    
    <glyph glyph-name="shouqi" unicode="&#59166;" d="M64 96h448v-128H64zM70.4 480h448v-128h-448zM64 864h896v-128H64zM704 192l256 224v-448z"  horiz-adv-x="1024" />

    
    <glyph glyph-name="zhankai" unicode="&#59167;" d="M64 96h448v-128H64zM70.4 480h448v-128h-448zM64 864h896v-128H64zM960 192l-256 224v-448z"  horiz-adv-x="1024" />

    
    <glyph glyph-name="lingdangpx" unicode="&#59186;" d="M512 384m-426.666667 0a426.666667 426.666667 0 1 1 853.333334 0 426.666667 426.666667 0 1 1-853.333334 0ZM494.933333 158.72h11.946667c30.72 0 56.32 23.893333 59.733333 54.613333H443.733333c3.413333-30.72 29.013333-54.613333 59.733334-54.613333H494.933333z m197.973334 87.04c-1.706667 37.546667-18.773333 69.973333-46.08 92.16v100.693333c0 58.026667-40.96 107.52-93.866667 119.466667v1.706667c0 27.306667-20.48 47.786667-47.786667 47.786666-25.6 0-47.786667-22.186667-47.786666-47.786666v-1.706667c-52.906667-11.946667-93.866667-61.44-93.866667-119.466667v-100.693333c-27.306667-22.186667-46.08-54.613333-46.08-92.16h375.466667z"  horiz-adv-x="1024" />

    
    <glyph glyph-name="piliangdaoru" unicode="&#59187;" d="M569.6 345.6l204.8 204.8 70.4-70.4L512 140.8 179.2 480l70.4 70.4 204.8-204.8V832h115.2zM960 51.2V-64H64v281.6h115.2v-166.4h665.6v166.4H960z"  horiz-adv-x="1024" />

    
    <glyph glyph-name="daochu" unicode="&#59188;" d="M569.6 627.2v-467.2H454.4V627.2L249.6 422.4 179.2 499.2 512 832l332.8-332.8-70.4-76.8zM960 51.2V-64H64v281.6h115.2v-166.4h665.6v166.4H960z"  horiz-adv-x="1024" />

    
    <glyph glyph-name="koujing" unicode="&#59189;" d="M460.8 640v-102.4h102.4V640H460.8z m0-204.8v-307.2h102.4V435.2H460.8z m51.2-460.8c-225.28 0-409.6 184.32-409.6 409.6s184.32 409.6 409.6 409.6 409.6-184.32 409.6-409.6-184.32-409.6-409.6-409.6z"  horiz-adv-x="1024" />

    
    <glyph glyph-name="gengduocaozuoqu" unicode="&#59190;" d="M512 117.76m-92.16 0a92.16 92.16 0 1 1 184.32 0 92.16 92.16 0 1 1-184.32 0ZM512 384m-92.16 0a92.16 92.16 0 1 1 184.32 0 92.16 92.16 0 1 1-184.32 0ZM512 650.24m-92.16 0a92.16 92.16 0 1 1 184.32 0 92.16 92.16 0 1 1-184.32 0Z"  horiz-adv-x="1024" />

    
    <glyph glyph-name="shuxingfuji" unicode="&#59228;" d="M153.6 691.2h281.6L512 599.04h358.4v-532.48H153.6V691.2z m450.56-358.4H512v-61.44h92.16V179.2H665.6v92.16h92.16V332.8H665.6V424.96h-61.44V332.8z"  horiz-adv-x="1024" />

    
    <glyph glyph-name="shuxingziji" unicode="&#59229;" d="M312.32 476.16v-389.12h399.36V680.96H512v-209.92H312.32v5.12z m25.6 56.32h117.76V655.36L337.92 532.48zM256 532.48L455.68 742.4H768v-716.8H256V532.48zM384 378.88h256v-51.2h-256zM384 261.12h256v-51.2h-256z"  horiz-adv-x="1024" />

    
    <glyph glyph-name="shuxingfujibaiban" unicode="&#59237;" d="M64 768h352L512 652.8h448v-665.6H64V768z m563.2-448H512v-76.8h115.2V128H704v115.2h115.2V320H704V435.2H627.2V320z"  horiz-adv-x="1024" />

    
    <glyph glyph-name="shuxingzijibaiban" unicode="&#59238;" d="M262.4 499.2v-486.4h499.2V755.2H512v-262.4H262.4v6.4z m32 70.4h147.2V723.2L294.4 569.6zM192 569.6L441.6 832H832v-896H192V569.6zM352 377.6h320v-64h-320zM352 230.4h320v-64h-320z"  horiz-adv-x="1024" />

    
    <glyph glyph-name="chenggong" unicode="&#59241;" d="M512 384m-384 0a384 384 0 1 1 768 0 384 384 0 1 1-768 0ZM489.6 224c-9.6 0-19.2 3.2-25.6 12.8l-121.6 160c-9.6 12.8-6.4 35.2 6.4 44.8 12.8 9.6 35.2 6.4 44.8-6.4l121.6-160c9.6-12.8 6.4-35.2-6.4-44.8-6.4-3.2-12.8-6.4-19.2-6.4zM486.4 224c-6.4 0-12.8 3.2-19.2 6.4-16 9.6-19.2 28.8-9.6 44.8l185.6 265.6c9.6 16 28.8 19.2 44.8 9.6 16-9.6 19.2-28.8 9.6-44.8l-182.4-265.6c-6.4-9.6-16-16-28.8-16z"  horiz-adv-x="1024" />

    
    <glyph glyph-name="cuowu" unicode="&#59242;" d="M512 384m-384 0a384 384 0 1 1 768 0 384 384 0 1 1-768 0ZM515.2 441.6l80 83.2c12.8 12.8 32 12.8 44.8 3.2 12.8-9.6 16-28.8 3.2-38.4l-86.4-89.6 86.4-89.6c12.8-12.8 9.6-28.8-3.2-38.4-12.8-9.6-35.2-9.6-44.8 3.2l-80 83.2-80-83.2c-12.8-12.8-32-12.8-44.8-3.2-12.8 9.6-16 28.8-3.2 38.4l86.4 89.6-89.6 86.4c-12.8 12.8-9.6 28.8 3.2 38.4 12.8 9.6 35.2 9.6 44.8-3.2l83.2-80z"  horiz-adv-x="1024" />

    
    <glyph glyph-name="jinggao" unicode="&#59243;" d="M512 384m-384 0a384 384 0 1 1 768 0 384 384 0 1 1-768 0ZM512 320c-19.2 0-32 12.8-32 32v224c0 19.2 12.8 32 32 32s32-12.8 32-32v-224c0-19.2-12.8-32-32-32zM512 224m-32 0a32 32 0 1 1 64 0 32 32 0 1 1-64 0Z"  horiz-adv-x="1024" />

    
    <glyph glyph-name="xinxi" unicode="&#59270;" d="M512 384m-384 0a384 384 0 1 1 768 0 384 384 0 1 1-768 0ZM512 179.2c-19.2 0-32 12.8-32 32v192c0 19.2 12.8 32 32 32s32-12.8 32-32v-192c0-19.2-12.8-32-32-32zM512 531.2m-32 0a32 32 0 1 1 64 0 32 32 0 1 1-64 0Z"  horiz-adv-x="1024" />

    
    <glyph glyph-name="yiwen" unicode="&#59271;" d="M521.6 406.4m-384 0a384 384 0 1 1 768 0 384 384 0 1 1-768 0ZM576 371.2c51.2 19.2 83.2 64 83.2 112 0 35.2-16 64-41.6 89.6-25.6 22.4-60.8 35.2-96 35.2s-70.4-12.8-96-35.2c-25.6-22.4-41.6-54.4-41.6-89.6v-6.4c0-3.2 3.2-6.4 6.4-6.4h41.6c3.2 0 6.4 3.2 6.4 6.4v6.4c0 38.4 38.4 67.2 83.2 67.2 44.8 0 83.2-32 83.2-67.2 0-25.6-19.2-51.2-48-60.8-19.2-6.4-32-19.2-44.8-35.2-12.8-16-16-35.2-16-54.4v-19.2c0-3.2 3.2-6.4 6.4-6.4H544c3.2 0 6.4 3.2 6.4 6.4v19.2c-3.2 16 9.6 32 25.6 38.4zM521.6 217.6m-35.2 0a35.2 35.2 0 1 1 70.4 0 35.2 35.2 0 1 1-70.4 0Z"  horiz-adv-x="1024" />

    
    <glyph glyph-name="biaoqianzhankaibaiban" unicode="&#59244;" d="M512 51.2c184.32 0 332.8 148.48 332.8 332.8S696.32 716.8 512 716.8s-332.8-153.6-332.8-332.8 153.6-332.8 332.8-332.8z m0-76.8c-225.28 0-409.6 184.32-409.6 409.6s184.32 409.6 409.6 409.6 409.6-184.32 409.6-409.6-184.32-409.6-409.6-409.6z m-40.96 450.56V588.8h81.92v-163.84H716.8v-81.92h-163.84V179.2H471.04v163.84H307.2V424.96h163.84z"  horiz-adv-x="1024" />

    
    <glyph glyph-name="biaoqianshouqibaiban" unicode="&#59245;" d="M307.2 435.2h409.6v-81.92H307.2V435.2z m204.8-384c184.32 0 332.8 148.48 332.8 332.8S696.32 716.8 512 716.8s-332.8-153.6-332.8-332.8 153.6-332.8 332.8-332.8z m0-76.8c-225.28 0-409.6 184.32-409.6 409.6s184.32 409.6 409.6 409.6 409.6-184.32 409.6-409.6-184.32-409.6-409.6-409.6z"  horiz-adv-x="1024" />

    
    <glyph glyph-name="biaoqianshouqigaoliang" unicode="&#59246;" d="M307.2 435.2h409.6v-81.92H307.2V435.2z m204.8-384c184.32 0 332.8 148.48 332.8 332.8S696.32 716.8 512 716.8s-332.8-153.6-332.8-332.8 153.6-332.8 332.8-332.8z m0-76.8c-225.28 0-409.6 184.32-409.6 409.6s184.32 409.6 409.6 409.6 409.6-184.32 409.6-409.6-184.32-409.6-409.6-409.6z"  horiz-adv-x="1024" />

    
    <glyph glyph-name="biaoqianzhankaigaoliang" unicode="&#59247;" d="M512 51.2c184.32 0 332.8 148.48 332.8 332.8S696.32 716.8 512 716.8s-332.8-153.6-332.8-332.8 153.6-332.8 332.8-332.8z m0-76.8c-225.28 0-409.6 184.32-409.6 409.6s184.32 409.6 409.6 409.6 409.6-184.32 409.6-409.6-184.32-409.6-409.6-409.6z m-40.96 450.56V588.8h81.92v-163.84H716.8v-81.92h-163.84V179.2H471.04v163.84H307.2V424.96h163.84z"  horiz-adv-x="1024" />

    
    <glyph glyph-name="beizhubaiban" unicode="&#59249;" d="M353.28 460.8h97.28c0 10.24 0 25.6 5.12 35.84 0 10.24 5.12 20.48 10.24 25.6 5.12 5.12 10.24 15.36 20.48 15.36 10.24 5.12 20.48 5.12 30.72 5.12 15.36 0 30.72-5.12 40.96-15.36 10.24-10.24 15.36-25.6 15.36-46.08 0-10.24 0-20.48-5.12-30.72-5.12 0-10.24-10.24-20.48-15.36-5.12-5.12-15.36-15.36-25.6-20.48-10.24-5.12-15.36-15.36-25.6-25.6s-15.36-20.48-20.48-30.72c-5.12-15.36-10.24-30.72-10.24-46.08v-30.72h92.16v25.6c0 15.36 5.12 25.6 15.36 30.72s15.36 15.36 25.6 25.6c10.24 5.12 20.48 15.36 30.72 20.48 20.48 15.36 40.96 35.84 46.08 61.44 5.12 15.36 10.24 30.72 10.24 51.2 0 30.72-15.36 61.44-35.84 81.92-15.36 15.36-30.72 25.6-51.2 30.72-20.48 10.24-46.08 15.36-76.8 15.36-25.6 0-46.08-5.12-66.56-10.24-25.6-10.24-46.08-20.48-61.44-35.84-15.36-15.36-25.6-30.72-30.72-51.2-10.24-20.48-10.24-40.96-10.24-66.56zM460.8 230.4v-102.4h102.4v102.4H460.8z m51.2-256c-225.28 0-409.6 184.32-409.6 409.6s184.32 409.6 409.6 409.6 409.6-184.32 409.6-409.6-184.32-409.6-409.6-409.6z"  horiz-adv-x="1024" />

    
    <glyph glyph-name="zhengtikanban" unicode="&#59251;" d="M64 832h409.6v-409.6H64zM64 345.6h409.6V-64H64zM550.4 832H960v-409.6H550.4zM550.4 345.6H960V-64H550.4z"  horiz-adv-x="1024" />

    
    <glyph glyph-name="gerenhuaxiang" unicode="&#59253;" d="M512 384c121.6 0 224 102.4 224 224S633.6 832 512 832c-57.6 0-115.2-25.6-160-64-44.8-44.8-64-96-64-160C288 486.4 390.4 384 512 384zM512 320c-147.2 0-448-83.2-448-256v-128h896v128c0 172.8-300.8 256-448 256z"  horiz-adv-x="1024" />

    
    <glyph glyph-name="baobiaozhongxin" unicode="&#59255;" d="M736 320h192v-320h-192zM512 512h192v-512H512zM288 768h192v-768h-192zM64 448h192v-448H64z"  horiz-adv-x="1024" />

    
    <glyph glyph-name="biaoqianshichang" unicode="&#59257;" d="M108.8 339.20000000000005l12.8 422.4 422.4 19.2 428.8-428.8-435.2-441.6zM321.962231 436.372531a96 96 0 1 1 135.762132 135.766872 96 96 0 1 1-135.762132-135.766872Z"  horiz-adv-x="1024" />

    
    <glyph glyph-name="quntihuaxiang" unicode="&#59259;" d="M844.8 140.79999999999995v-121.6H166.4v121.6c0 108.8 230.4 160 339.2 160 115.2 6.4 339.2-51.2 339.2-160zM505.6 704c96 0 172.8-76.8 172.8-172.8S601.6 364.79999999999995 505.6 364.79999999999995 332.8 441.6 332.8 531.2 409.6 704 505.6 704zM211.2 531.2c-57.6 0-108.8-44.8-108.8-108.8 6.4-57.6 51.2-102.4 108.8-102.4C275.2 320 320 364.79999999999995 320 428.8c0 57.6-44.8 102.4-108.8 102.4z m-12.8-256c-76.8 0-198.4-38.4-198.4-108.8v-83.2h115.2v96c0 38.4 32 70.4 83.2 96zM806.4 531.2c57.6 0 108.8-44.8 108.8-108.8 0-57.6-44.8-108.8-108.8-108.8-57.6 0-108.8 44.8-108.8 108.8s51.2 108.8 108.8 108.8z m19.2-256c76.8-6.4 198.4-44.8 198.4-115.2v-83.2h-115.2v96c0 44.8-38.4 76.8-83.2 102.4z"  horiz-adv-x="1024" />

    
    <glyph glyph-name="wodeshoucang" unicode="&#59261;" d="M64 556.8l409.6-192V-64L64 128zM512 832l448-192-448-211.2L64 640zM960 556.8V128l-409.6-192V364.79999999999995z"  horiz-adv-x="1024" />

    
    <glyph glyph-name="xitongguanli" unicode="&#59263;" d="M505.6 556.8h64v-339.2h-64zM377.6 768h320v-320h-320zM409.6 217.60000000000002h256v-256h-256zM883.2 153.60000000000002c-19.2 0-32 12.8-32 32V320H224v-140.8c0-19.2-12.8-32-32-32s-32 12.8-32 32V352c0 19.2 12.8 32 32 32h691.2c19.2 0 32-12.8 32-32v-172.8c0-12.8-12.8-25.6-32-25.6zM761.6 217.60000000000002h256v-256h-256zM64 217.60000000000002h256v-256H64z"  horiz-adv-x="1024" />

    
    <glyph glyph-name="xiaosanjiao" unicode="&#59264;" d="M544 192L768 512H320z"  horiz-adv-x="1024" />

    
    <glyph glyph-name="yonghuguanlimorenzhuangtai" unicode="&#59290;" d="M512 384c121.6 0 224 102.4 224 224S633.6 832 512 832c-57.6 0-115.2-25.6-160-64-44.8-44.8-64-96-64-160C288 486.4 390.4 384 512 384zM512 320c-147.2 0-448-83.2-448-256v-128h896v128c0 172.8-300.8 256-448 256z"  horiz-adv-x="1024" />

    


  </font>
</defs>
</svg>
